<?xml version="1.0" encoding="UTF-8" standalone="no"?>
<svg
   xmlns:dc="http://purl.org/dc/elements/1.1/"
   xmlns:cc="http://creativecommons.org/ns#"
   xmlns:rdf="http://www.w3.org/1999/02/22-rdf-syntax-ns#"
   xmlns:svg="http://www.w3.org/2000/svg"
   xmlns="http://www.w3.org/2000/svg"
   xmlns:sodipodi="http://sodipodi.sourceforge.net/DTD/sodipodi-0.dtd"
   xmlns:inkscape="http://www.inkscape.org/namespaces/inkscape"
   viewBox="0 0 221.27843 52.971466"
   height="52.971466"
   width="221.27843"
   xml:space="preserve"
   id="svg2"
   version="1.1"
   inkscape:version="0.91 r13725"
   sodipodi:docname="parallel-port.svg"><sodipodi:namedview
     pagecolor="#ffffff"
     bordercolor="#666666"
     borderopacity="1"
     objecttolerance="10"
     gridtolerance="10"
     guidetolerance="10"
     inkscape:pageopacity="0"
     inkscape:pageshadow="2"
     inkscape:window-width="1162"
     inkscape:window-height="765"
     id="namedview3773"
     showgrid="false"
     fit-margin-top="0"
     fit-margin-left="0"
     fit-margin-right="0"
     fit-margin-bottom="0"
     inkscape:zoom="2.3663793"
     inkscape:cx="110.6651"
     inkscape:cy="-3.291197"
     inkscape:window-x="0"
     inkscape:window-y="0"
     inkscape:window-maximized="0"
     inkscape:current-layer="g12" /><metadata
     id="metadata8"><rdf:RDF><cc:Work
         rdf:about=""><dc:format>image/svg+xml</dc:format><dc:type
           rdf:resource="http://purl.org/dc/dcmitype/StillImage" /><dc:title></dc:title></cc:Work></rdf:RDF></metadata><defs
     id="defs6"><clipPath
       id="clipPath194"
       clipPathUnits="userSpaceOnUse"><path
         id="path192"
         d="m 630,719.672 50,0 0,-40 -50,0 z"
         inkscape:connector-curvature="0" /></clipPath><clipPath
       id="clipPath206"
       clipPathUnits="userSpaceOnUse"><path
         id="path204"
         d="m 720,719.672 40,0 0,-40 -40,0 z"
         inkscape:connector-curvature="0" /></clipPath><clipPath
       id="clipPath218"
       clipPathUnits="userSpaceOnUse"><path
         id="path216"
         d="m 810,719.672 40,0 0,-40 -40,0 z"
         inkscape:connector-curvature="0" /></clipPath><clipPath
       id="clipPath230"
       clipPathUnits="userSpaceOnUse"><path
         id="path228"
         d="m 900,719.672 40,0 0,-40 -40,0 z"
         inkscape:connector-curvature="0" /></clipPath><clipPath
       id="clipPath242"
       clipPathUnits="userSpaceOnUse"><path
         id="path240"
         d="m 980,719.672 50,0 0,-40 -50,0 z"
         inkscape:connector-curvature="0" /></clipPath><clipPath
       id="clipPath254"
       clipPathUnits="userSpaceOnUse"><path
         id="path252"
         d="m 670,629.672 50,0 0,-40 -50,0 z"
         inkscape:connector-curvature="0" /></clipPath><clipPath
       id="clipPath266"
       clipPathUnits="userSpaceOnUse"><path
         id="path264"
         d="m 760,629.672 50,0 0,-40 -50,0 z"
         inkscape:connector-curvature="0" /></clipPath><clipPath
       id="clipPath278"
       clipPathUnits="userSpaceOnUse"><path
         id="path276"
         d="m 850,629.672 50,0 0,-40 -50,0 z"
         inkscape:connector-curvature="0" /></clipPath><clipPath
       id="clipPath290"
       clipPathUnits="userSpaceOnUse"><path
         id="path288"
         d="m 940,629.672 50,0 0,-40 -50,0 z"
         inkscape:connector-curvature="0" /></clipPath></defs><g
     transform="matrix(1.3333333,0,0,-1.3333333,-0.00156267,172.26266)"
     id="g10"><g
       transform="scale(0.1,0.1)"
       id="g12"><g
         id="g3775"><path
           d="m 1651.6,950.648 c 0,-26.488 -21.48,-47.968 -48.01,-47.968 l -1547.5705,0 c -26.5312,0 -48.00778,21.48 -48.00778,47.968 l 0,285.312 c 0,26.52 21.47658,48.01 48.00778,48.01 l 1547.5705,0 c 26.53,0 48.01,-21.49 48.01,-48.01 z"
           style="fill:#999999;fill-opacity:1;fill-rule:nonzero;stroke:none"
           id="path14"
           inkscape:connector-curvature="0" /><path
           d="m 1651.6,950.652 c 0,-26.492 -21.48,-47.968 -48.01,-47.968 l -1547.5705,0 c -26.5312,0 -48.00778,21.476 -48.00778,47.968 l 0,285.308 c 0,26.52 21.47658,48.01 48.00778,48.01 l 1547.5705,0 c 26.53,0 48.01,-21.49 48.01,-48.01 z"
           style="fill:none;stroke:#000000;stroke-width:16;stroke-linecap:butt;stroke-linejoin:miter;stroke-miterlimit:4;stroke-dasharray:none;stroke-opacity:1"
           id="path16"
           inkscape:connector-curvature="0" /><path
           d="m 277.77,1226.9 c -44.879,0 -75.231,-36.13 -67.418,-80.35 L 229.18,1040.1 c 7.808,-44.221 50.941,-80.389 95.82,-80.389 l 1009.69,0 c 44.84,0 87.97,36.168 95.78,80.389 l 18.87,106.45 c 7.81,44.22 -22.54,80.35 -67.43,80.35 z"
           style="fill:#ff00cc;fill-opacity:1;fill-rule:nonzero;stroke:none"
           id="path18"
           inkscape:connector-curvature="0" /><path
           d="m 277.77,1226.9 c -44.879,0 -75.231,-36.14 -67.418,-80.35 L 229.18,1040.1 c 7.808,-44.217 50.941,-80.389 95.82,-80.389 l 1009.69,0 c 44.84,0 87.97,36.172 95.78,80.389 l 18.87,106.45 c 7.81,44.21 -22.54,80.35 -67.43,80.35 z"
           style="fill:none;stroke:#000000;stroke-width:8;stroke-linecap:butt;stroke-linejoin:miter;stroke-miterlimit:4;stroke-dasharray:none;stroke-opacity:1"
           id="path20"
           inkscape:connector-curvature="0" /><path
           d="m 318.52,1137.84 c 0,-9.89 -8.008,-17.93 -17.93,-17.93 -9.891,0 -17.93,8.04 -17.93,17.93 0,9.88 8.039,17.93 17.93,17.93 9.922,0 17.93,-8.05 17.93,-17.93 z"
           style="fill:#000000;fill-opacity:1;fill-rule:nonzero;stroke:none"
           id="path22"
           inkscape:connector-curvature="0" /><path
           d="m 406.719,1137.84 c 0,-9.89 -8.008,-17.93 -17.891,-17.93 -9.918,0 -17.93,8.04 -17.93,17.93 0,9.88 8.012,17.93 17.93,17.93 9.883,0 17.891,-8.05 17.891,-17.93 z"
           style="fill:#000000;fill-opacity:1;fill-rule:nonzero;stroke:none"
           id="path24"
           inkscape:connector-curvature="0" /><path
           d="m 494.961,1137.84 c 0,-9.89 -8.051,-17.93 -17.93,-17.93 -9.883,0 -17.89,8.04 -17.89,17.93 0,9.88 8.007,17.89 17.89,17.89 9.879,0 17.93,-8.01 17.93,-17.89 z"
           style="fill:#000000;fill-opacity:1;fill-rule:nonzero;stroke:none"
           id="path26"
           inkscape:connector-curvature="0" /><path
           d="m 583.16,1137.84 c 0,-9.89 -8,-17.93 -17.93,-17.93 -9.878,0 -17.929,8.04 -17.929,17.93 0,9.88 8.051,17.93 17.929,17.93 9.93,0 17.93,-8.05 17.93,-17.93 z"
           style="fill:#000000;fill-opacity:1;fill-rule:nonzero;stroke:none"
           id="path28"
           inkscape:connector-curvature="0" /><path
           d="m 362.621,1048.7 c 0,-9.89 -8.012,-17.9 -17.93,-17.9 -9.89,0 -17.89,8.01 -17.89,17.9 0,9.92 8,17.93 17.89,17.93 9.918,0 17.93,-8.01 17.93,-17.93 z"
           style="fill:#000000;fill-opacity:1;fill-rule:nonzero;stroke:none"
           id="path30"
           inkscape:connector-curvature="0" /><path
           d="m 450.859,1048.7 c 0,-9.89 -8.05,-17.9 -17.929,-17.9 -9.879,0 -17.93,8.01 -17.93,17.9 0,9.92 8.051,17.93 17.93,17.93 9.879,0 17.929,-8.01 17.929,-17.93 z"
           style="fill:#000000;fill-opacity:1;fill-rule:nonzero;stroke:none"
           id="path32"
           inkscape:connector-curvature="0" /><path
           d="m 539.02,1048.7 c 0,-9.89 -8,-17.9 -17.891,-17.9 -9.918,0 -17.93,8.01 -17.93,17.9 0,9.92 8.012,17.93 17.93,17.93 9.891,0 17.891,-8.01 17.891,-17.93 z"
           style="fill:#000000;fill-opacity:1;fill-rule:nonzero;stroke:none"
           id="path34"
           inkscape:connector-curvature="0" /><path
           d="m 609.379,1066.66 c 9.883,0 17.891,-8 17.891,-17.89 0,-9.88 -8.008,-17.93 -17.891,-17.93 -9.93,0 -17.93,8.05 -17.93,17.93 0,9.89 8,17.89 17.93,17.89 z"
           style="fill:#000000;fill-opacity:1;fill-rule:nonzero;stroke:none"
           id="path36"
           inkscape:connector-curvature="0" /><path
           d="m 935.98,1137.84 c 0,-9.89 -8.011,-17.93 -17.929,-17.93 -9.891,0 -17.891,8.04 -17.891,17.93 0,9.88 8,17.93 17.891,17.93 9.918,0 17.929,-8.05 17.929,-17.93 z"
           style="fill:#000000;fill-opacity:1;fill-rule:nonzero;stroke:none"
           id="path38"
           inkscape:connector-curvature="0" /><path
           d="m 847.77,1137.84 c 0,-9.89 -8.04,-17.89 -17.93,-17.89 -9.879,0 -17.891,8 -17.891,17.89 0,9.88 8.012,17.93 17.891,17.93 9.89,0 17.93,-8.05 17.93,-17.93 z"
           style="fill:#000000;fill-opacity:1;fill-rule:nonzero;stroke:none"
           id="path40"
           inkscape:connector-curvature="0" /><path
           d="m 759.57,1137.84 c 0,-9.89 -8.05,-17.93 -17.929,-17.93 -9.879,0 -17.93,8.04 -17.93,17.93 0,9.88 8.051,17.93 17.93,17.93 9.879,0 17.929,-8.05 17.929,-17.93 z"
           style="fill:#000000;fill-opacity:1;fill-rule:nonzero;stroke:none"
           id="path42"
           inkscape:connector-curvature="0" /><path
           d="m 671.371,1137.84 c 0,-9.89 -8.051,-17.93 -17.93,-17.93 -9.921,0 -17.929,8.04 -17.929,17.93 0,9.88 8.008,17.93 17.929,17.93 9.879,0 17.93,-8.05 17.93,-17.93 z"
           style="fill:#000000;fill-opacity:1;fill-rule:nonzero;stroke:none"
           id="path44"
           inkscape:connector-curvature="0" /><path
           d="m 891.879,1048.73 c 0,-9.92 -8.008,-17.93 -17.93,-17.93 -9.89,0 -17.929,8.01 -17.929,17.93 0,9.89 8.039,17.93 17.929,17.93 9.922,0 17.93,-8.04 17.93,-17.93 z"
           style="fill:#000000;fill-opacity:1;fill-rule:nonzero;stroke:none"
           id="path46"
           inkscape:connector-curvature="0" /><path
           d="m 803.672,1048.73 c 0,-9.92 -8.012,-17.93 -17.934,-17.93 -9.879,0 -17.886,8.01 -17.886,17.93 0,9.89 8.007,17.93 17.886,17.93 9.922,0 17.934,-8.04 17.934,-17.93 z"
           style="fill:#000000;fill-opacity:1;fill-rule:nonzero;stroke:none"
           id="path48"
           inkscape:connector-curvature="0" /><path
           d="m 697.539,1066.66 c -9.879,0 -17.93,-8 -17.93,-17.93 0,-9.88 8.051,-17.89 17.93,-17.89 9.883,0 17.891,8.01 17.891,17.89 0,9.93 -8.008,17.93 -17.891,17.93 z"
           style="fill:#000000;fill-opacity:1;fill-rule:nonzero;stroke:none"
           id="path50"
           inkscape:connector-curvature="0" /><path
           d="m 1359.1,1155.77 c -9.88,0 -17.93,-8.01 -17.93,-17.89 0,-9.93 8.05,-17.93 17.93,-17.93 9.88,0 17.89,8 17.89,17.93 0,9.88 -8.01,17.89 -17.89,17.89 z"
           style="fill:#000000;fill-opacity:1;fill-rule:nonzero;stroke:none"
           id="path52"
           inkscape:connector-curvature="0" /><path
           d="m 1332.89,1048.73 c 0,-9.88 -8.05,-17.93 -17.93,-17.93 -9.88,0 -17.93,8.05 -17.93,17.93 0,9.89 8.05,17.9 17.93,17.9 9.88,0 17.93,-8.01 17.93,-17.9 z"
           style="fill:#000000;fill-opacity:1;fill-rule:nonzero;stroke:none"
           id="path54"
           inkscape:connector-curvature="0" /><path
           d="m 1024.18,1137.84 c 0,-9.89 -8.01,-17.89 -17.93,-17.89 -9.879,0 -17.891,8 -17.891,17.89 0,9.92 8.012,17.93 17.891,17.93 9.92,0 17.93,-8.01 17.93,-17.93 z"
           style="fill:#000000;fill-opacity:1;fill-rule:nonzero;stroke:none"
           id="path56"
           inkscape:connector-curvature="0" /><path
           d="m 1094.41,1155.77 c 9.89,0 17.93,-8.01 17.93,-17.89 0,-9.89 -8.04,-17.93 -17.93,-17.93 -9.88,0 -17.89,8.04 -17.89,17.93 0,9.88 8.01,17.89 17.89,17.89 z"
           style="fill:#000000;fill-opacity:1;fill-rule:nonzero;stroke:none"
           id="path58"
           inkscape:connector-curvature="0" /><path
           d="m 1182.66,1155.77 c 9.88,0 17.93,-8.01 17.93,-17.89 0,-9.93 -8.05,-17.93 -17.93,-17.93 -9.89,0 -17.89,8 -17.89,17.93 0,9.88 8,17.89 17.89,17.89 z"
           style="fill:#000000;fill-opacity:1;fill-rule:nonzero;stroke:none"
           id="path60"
           inkscape:connector-curvature="0" /><path
           d="m 1288.79,1137.84 c 0,-9.89 -8.01,-17.89 -17.89,-17.89 -9.92,0 -17.93,8 -17.93,17.89 0,9.92 8.01,17.93 17.93,17.93 9.88,0 17.89,-8.01 17.89,-17.93 z"
           style="fill:#000000;fill-opacity:1;fill-rule:nonzero;stroke:none"
           id="path62"
           inkscape:connector-curvature="0" /><path
           d="m 980.078,1048.73 c 0,-9.88 -8.047,-17.93 -17.93,-17.93 -9.878,0 -17.929,8.05 -17.929,17.93 0,9.93 8.051,17.93 17.929,17.93 9.883,0 17.93,-8 17.93,-17.93 z"
           style="fill:#000000;fill-opacity:1;fill-rule:nonzero;stroke:none"
           id="path64"
           inkscape:connector-curvature="0" /><path
           d="m 1068.28,1048.73 c 0,-9.88 -8.01,-17.93 -17.93,-17.93 -9.88,0 -17.93,8.05 -17.93,17.93 0,9.93 8.05,17.93 17.93,17.93 9.92,0 17.93,-8 17.93,-17.93 z"
           style="fill:#000000;fill-opacity:1;fill-rule:nonzero;stroke:none"
           id="path66"
           inkscape:connector-curvature="0" /><path
           d="m 1156.48,1048.73 c 0,-9.88 -8.04,-17.93 -17.93,-17.93 -9.88,0 -17.93,8.05 -17.93,17.93 0,9.93 8.05,17.93 17.93,17.93 9.89,0 17.93,-8 17.93,-17.93 z"
           style="fill:#000000;fill-opacity:1;fill-rule:nonzero;stroke:none"
           id="path68"
           inkscape:connector-curvature="0" /><path
           d="m 1226.8,1066.66 c 9.88,0 17.89,-8.04 17.89,-17.93 0,-9.88 -8.01,-17.93 -17.89,-17.93 -9.92,0 -17.93,8.05 -17.93,17.93 0,9.89 8.01,17.93 17.93,17.93 z"
           style="fill:#000000;fill-opacity:1;fill-rule:nonzero;stroke:none"
           id="path70"
           inkscape:connector-curvature="0" /><path
           d="m 138.09,1093.3 c 0,-22.34 -18.09,-40.42 -40.4298,-40.42 -22.3086,0 -40.4297,18.08 -40.4297,40.42 0,22.31 18.1211,40.43 40.4297,40.43 22.3398,0 40.4298,-18.12 40.4298,-40.43 z"
           style="fill:#e6e6e6;fill-opacity:1;fill-rule:nonzero;stroke:none"
           id="path72"
           inkscape:connector-curvature="0" /><path
           d="m 138.09,1093.3 c 0,-22.34 -18.09,-40.43 -40.4298,-40.43 -22.3086,0 -40.4297,18.09 -40.4297,40.43 0,22.31 18.1211,40.43 40.4297,40.43 22.3398,0 40.4298,-18.12 40.4298,-40.43 z"
           style="fill:none;stroke:#000000;stroke-width:8;stroke-linecap:butt;stroke-linejoin:miter;stroke-miterlimit:4;stroke-dasharray:none;stroke-opacity:1"
           id="path74"
           inkscape:connector-curvature="0" /><path
           d="m 1602.42,1093.3 c 0,-22.34 -18.08,-40.42 -40.43,-40.42 -22.3,0 -40.43,18.08 -40.43,40.42 0,22.31 18.13,40.43 40.43,40.43 22.35,0 40.43,-18.12 40.43,-40.43 z"
           style="fill:#e6e6e6;fill-opacity:1;fill-rule:nonzero;stroke:none"
           id="path76"
           inkscape:connector-curvature="0" /><path
           d="m 1602.42,1093.3 c 0,-22.34 -18.08,-40.43 -40.43,-40.43 -22.3,0 -40.43,18.09 -40.43,40.43 0,22.31 18.13,40.43 40.43,40.43 22.35,0 40.43,-18.12 40.43,-40.43 z"
           style="fill:none;stroke:#000000;stroke-width:8;stroke-linecap:butt;stroke-linejoin:miter;stroke-miterlimit:4;stroke-dasharray:none;stroke-opacity:1"
           id="path78"
           inkscape:connector-curvature="0" /></g></g></g></svg>